<svg width="24" height="25" viewBox="0 0 24 25" fill="none" xmlns="http://www.w3.org/2000/svg">
<g clip-path="url(#clip0_1592_240568)">
<path d="M23.7663 12.5399C23.7663 11.7242 23.7001 10.9041 23.559 10.1016H12.2402V14.7225H18.722C18.453 16.2129 17.5888 17.5313 16.3233 18.3691V21.3674H20.1903C22.4611 19.2774 23.7663 16.1909 23.7663 12.5399Z" fill="#4285F4"/>
<path d="M12.2391 24.265C15.4756 24.265 18.205 23.2023 20.1936 21.3681L16.3266 18.3697C15.2507 19.1017 13.8618 19.5161 12.2435 19.5161C9.11291 19.5161 6.45849 17.4041 5.50607 14.5645H1.51562V17.6554C3.55274 21.7076 7.70192 24.265 12.2391 24.265Z" fill="#34A853"/>
<path d="M5.50277 14.5644C5.00011 13.074 5.00011 11.4602 5.50277 9.96985V6.87891H1.51674C-0.185266 10.2697 -0.185266 14.2645 1.51674 17.6553L5.50277 14.5644Z" fill="#FBBC04"/>
<path d="M12.2391 5.01333C13.9499 4.98688 15.6034 5.63064 16.8425 6.81234L20.2685 3.38629C18.0991 1.34918 15.2198 0.229206 12.2391 0.264481C7.70192 0.264481 3.55274 2.82189 1.51562 6.87848L5.50166 9.96942C6.44967 7.1254 9.1085 5.01333 12.2391 5.01333Z" fill="#EA4335"/>
</g>
<defs>
<clipPath id="clip0_1592_240568">
<rect width="24" height="24" fill="white" transform="translate(0 0.263672)"/>
</clipPath>
</defs>
</svg>
